<?xml version="1.0" encoding="iso-8859-1"?>
<!-- Generator: Adobe Illustrator 19.0.0, SVG Export Plug-In . SVG Version: 6.00 Build 0)  -->
<svg version="1.1" id="Layer_1" xmlns="http://www.w3.org/2000/svg" xmlns:xlink="http://www.w3.org/1999/xlink" x="0px" y="0px"
	 viewBox="0 0 40.844 31.614" style="enable-background:new 0 0 40.844 31.614;" xml:space="preserve">
<g>
	<linearGradient id="SVGID_1_" gradientUnits="userSpaceOnUse" x1="4.9371" y1="-1.2676" x2="30.5867" y2="29.8967">
		<stop  offset="0.2423" style="stop-color:#D2D3D4"/>
		<stop  offset="0.3006" style="stop-color:#CDCECF"/>
		<stop  offset="0.4855" style="stop-color:#C3C3C3"/>
		<stop  offset="0.6748" style="stop-color:#BFBFBF"/>
	</linearGradient>
	<path style="fill:url(#SVGID_1_);" d="M37.688,31.364c0,0-1.453-6.412-7.205-6.08c-5.749,0.329-12.279,4.316-19.485,2.464
		c-7.206-1.85-9.665-7.005-8.938-8.678c0.723-1.67,7.46,1.146,10.247,2.378c1.867,0.826,9.002-4.991,4.296-9.451
		C8.687,4.491,5.769,18.698,1.811,17.4C-0.2,16.74-1.378,6.641,5.232,2.479C11.842-1.686,24.07-0.1,32.269,7.966
		c8.194,8.063,8.325,7.799,8.325,7.799L37.688,31.364z"/>
	<path style="fill:none;stroke:#767677;stroke-width:0.5;stroke-linecap:round;" d="M37.688,31.364c0,0-1.453-6.412-7.205-6.08
		c-5.749,0.329-12.279,4.316-19.485,2.464c-7.206-1.85-9.665-7.005-8.938-8.678c0.723-1.67,5.893,0.934,8.668,2.19
		c2.775,1.257,10.581-4.803,5.875-9.263c-3.928-3.724-7.143-2.509-8.816,0.287c-2.268,3.799-3.763,4.923-5.905,4.462
		c-2.07-0.443-3.261-10.105,3.35-14.268C11.842-1.686,24.07-0.1,32.269,7.966c8.194,8.063,8.325,7.799,8.325,7.799"/>
	<path style="fill:none;stroke:#767677;stroke-width:0.5;stroke-linecap:round;" d="M0.949,8.453c0,0,4.735-3.766,7.396-4.674
		c2.657-0.908,5.643-0.52,5.643-0.52"/>
	<path style="fill:none;stroke:#767677;stroke-width:0.5;stroke-linecap:round;" d="M19.217,15.235c0,0-0.367,0.201-1.292,1.092"/>
</g>
</svg>
