<?xml version="1.0" encoding="iso-8859-1"?>
<!-- Generator: Adobe Illustrator 19.0.0, SVG Export Plug-In . SVG Version: 6.00 Build 0)  -->
<svg version="1.1" id="Layer_1" xmlns="http://www.w3.org/2000/svg" xmlns:xlink="http://www.w3.org/1999/xlink" x="0px" y="0px"
	 viewBox="0 0 32.901 29.344" style="enable-background:new 0 0 32.901 29.344;" xml:space="preserve">
<pattern  x="-290.273" y="-380.689" width="13.64" height="13.64" patternUnits="userSpaceOnUse" id="New_Pattern_Swatch_8" viewBox="0 -13.64 13.64 13.64" style="overflow:visible;">
	<g>
		<polygon style="fill:none;" points="0,0 13.64,0 13.64,-13.64 0,-13.64 		"/>
		<path style="fill:#B0B1B1;" d="M13.64-13.64V0H0v-13.64H13.64z M11.929-8.597v0.709h0.649v-0.709H11.929z M12.254-12.367h-0.649
			v0.709h0.649V-12.367z M10.955-12.571h0.649v-0.709h-0.649V-12.571z M10.817-5.949h0.649v-0.709h-0.649V-5.949z M8.783-10.942
			h0.649v-0.709H8.783V-10.942z M9.432-8.242v0.709h0.649v-0.709H9.432z M8.783-5.774h0.649v-0.709H8.783V-5.774z M7.166-7.174
			h0.649v-0.709H7.166V-7.174z M5.846-11.651h0.649h0.649v-0.709H6.495H5.846V-11.651z M6.17-10.093v0.709H6.82v-0.709H6.17z
			 M4.207-12.013h0.649v-0.709H4.207V-12.013z M4.207-10.233h0.649v-0.709H4.207V-10.233z M1.249-12.36h0.649v-0.709H1.249V-12.36z
			 M1.573-3.729H0.924v0.709h0.649V-3.729z M2.223-7.529H1.573v0.709h0.649V-7.529z M2.223-9.879H1.573v0.709h0.649V-9.879z
			 M2.438-5.949h0.649v-0.517h0.325v-0.709H2.763v0.517H2.438V-5.949z M3.737-1.994H3.088v0.709h0.649V-1.994z M4.531-5.949H3.882
			v0.709h0.649V-5.949z M4.531-7.883h0.649v-0.709H4.531V-7.883z M5.505-3.729H4.856v0.709h0.649V-3.729z M6.82-1.994H6.17v-0.332
			H5.521v0.709h0.325v0.709h0.649v-0.377H6.82V-1.994z M7.166-4.885v0.008h0.649v-0.709H7.469v-0.008H6.82v0.362H6.495v0.709h0.649
			v-0.362H7.166z M8.119-4.084H7.469v0.709h0.649V-4.084z M8.464-9.879H8.14v-0.354H7.49v0.709h0.325v0.354h0.649V-9.879z
			 M8.783-2.312h0.649v-0.709H8.783V-2.312z M9.757-1.639H9.107v0.709h0.649V-1.639z M10.402-5.232H9.752v0.709h0.649V-5.232z
			 M11.466-0.93h-0.649v0.709h0.649V-0.93z M11.791-3.375h-0.649v0.709h0.649V-3.375z M11.791-10.233h-0.649v0.709h0.649V-10.233z
			 M11.929-5.065h0.649v-0.709h-0.649V-5.065z M13.228-1.285h-0.649v0.709h0.649V-1.285z M13.228-4.259h-0.649v0.709h0.649V-4.259z
			 M13.228-13.076h-0.649v0.709h0.649V-13.076z"/>
		<polygon style="fill:#767677;" points="7.469,-3.375 8.119,-3.375 8.119,-4.084 7.469,-4.084 		"/>
		<polygon style="fill:#B0B0B0;" points="6.495,-12.36 5.846,-12.36 5.846,-11.651 6.495,-11.651 		"/>
		<polygon style="fill:#545454;" points="4.856,-10.942 4.207,-10.942 4.207,-10.233 4.856,-10.233 		"/>
		<polygon style="fill:#929292;" points="3.882,-5.24 4.531,-5.24 4.531,-5.949 3.882,-5.949 		"/>
		<polygon style="fill:#7E7F7F;" points="12.579,-12.367 13.228,-12.367 13.228,-13.076 12.579,-13.076 		"/>
		<polygon style="fill:#C7C7C7;" points="3.088,-1.285 3.737,-1.285 3.737,-1.994 3.088,-1.994 		"/>
		<polygon style="fill:#B0B0B0;" points="8.14,-9.879 8.14,-10.233 7.49,-10.233 7.49,-9.524 7.815,-9.524 7.815,-9.879 		"/>
		<polygon style="fill:#B0B0B0;" points="3.088,-6.465 2.763,-6.465 2.763,-6.658 2.438,-6.658 2.438,-5.949 3.088,-5.949 		"/>
		<polygon style="fill:#D4D4D4;" points="11.466,-6.658 10.817,-6.658 10.817,-5.949 11.466,-5.949 		"/>
		<polygon style="fill:#858585;" points="12.579,-3.55 13.228,-3.55 13.228,-4.259 12.579,-4.259 		"/>
		<polygon style="fill:#CCCCCC;" points="5.181,-8.592 4.531,-8.592 4.531,-7.883 5.181,-7.883 		"/>
		<polygon style="fill:#767677;" points="6.17,-9.384 6.82,-9.384 6.82,-10.093 6.17,-10.093 		"/>
		<polygon style="fill:#B0B0B0;" points="6.17,-1.616 5.846,-1.616 5.846,-0.907 6.495,-0.907 6.495,-1.285 6.17,-1.285 		"/>
		<polygon style="fill:#545454;" points="11.142,-9.524 11.791,-9.524 11.791,-10.233 11.142,-10.233 		"/>
		<polygon style="fill:#929292;" points="11.604,-13.28 10.955,-13.28 10.955,-12.571 11.604,-12.571 		"/>
		<polygon style="fill:#7E7F7F;" points="1.573,-6.82 2.223,-6.82 2.223,-7.529 1.573,-7.529 		"/>
		<polygon style="fill:#969696;" points="9.752,-4.523 10.402,-4.523 10.402,-5.232 9.752,-5.232 		"/>
		<polygon style="fill:#B0B0B0;" points="7.815,-4.877 7.815,-5.586 7.469,-5.586 7.469,-4.885 7.166,-4.885 7.166,-4.877 		"/>
		<polygon style="fill:#B0B0B0;" points="9.432,-6.483 8.783,-6.483 8.783,-5.774 9.432,-5.774 		"/>
		<polygon style="fill:#D4D4D4;" points="8.14,-9.524 7.815,-9.524 7.815,-9.17 8.464,-9.17 8.464,-9.879 8.14,-9.879 		"/>
		<polygon style="fill:#D4D4D4;" points="8.14,-9.879 7.815,-9.879 7.815,-9.524 8.14,-9.524 		"/>
		<polygon style="fill:#858585;" points="12.579,-0.576 13.228,-0.576 13.228,-1.285 12.579,-1.285 		"/>
		<polygon style="fill:#CCCCCC;" points="1.573,-9.17 2.223,-9.17 2.223,-9.879 1.573,-9.879 		"/>
		<polygon style="fill:#767677;" points="7.145,-11.651 7.145,-12.36 6.495,-12.36 6.495,-11.651 		"/>
		<polygon style="fill:#B0B0B0;" points="6.82,-5.232 6.495,-5.232 6.495,-4.523 7.145,-4.523 7.145,-4.885 6.82,-4.885 		"/>
		<polygon style="fill:#929292;" points="12.579,-5.774 11.929,-5.774 11.929,-5.065 12.579,-5.065 		"/>
		<polygon style="fill:#7E7F7F;" points="7.469,-5.586 7.469,-5.594 6.82,-5.594 6.82,-5.232 7.145,-5.232 7.145,-4.885 
			7.166,-4.885 7.166,-5.586 		"/>
		<polygon style="fill:#7E7F7F;" points="7.469,-5.586 7.166,-5.586 7.166,-4.885 7.469,-4.885 		"/>
		<polygon style="fill:#7E7F7F;" points="6.82,-5.232 6.82,-4.885 7.145,-4.885 7.145,-5.232 		"/>
		<polygon style="fill:#C7C7C7;" points="11.929,-7.888 12.579,-7.888 12.579,-8.597 11.929,-8.597 		"/>
		<polygon style="fill:#B0B0B0;" points="6.17,-1.994 6.17,-2.325 5.521,-2.325 5.521,-1.616 5.846,-1.616 6.17,-1.616 		"/>
		<polygon style="fill:#B0B0B0;" points="4.856,-12.722 4.207,-12.722 4.207,-12.013 4.856,-12.013 		"/>
		<polygon style="fill:#858585;" points="9.432,-11.651 8.783,-11.651 8.783,-10.942 9.432,-10.942 		"/>
		<polygon style="fill:#CCCCCC;" points="9.432,-3.021 8.783,-3.021 8.783,-2.312 9.432,-2.312 		"/>
		<polygon style="fill:#767677;" points="9.107,-0.93 9.757,-0.93 9.757,-1.639 9.107,-1.639 		"/>
		<polygon style="fill:#D4D4D4;" points="11.142,-2.666 11.791,-2.666 11.791,-3.375 11.142,-3.375 		"/>
		<polygon style="fill:#545454;" points="7.815,-7.883 7.166,-7.883 7.166,-7.174 7.815,-7.174 		"/>
		<polygon style="fill:#929292;" points="1.898,-13.069 1.249,-13.069 1.249,-12.36 1.898,-12.36 		"/>
		<polygon style="fill:#7E7F7F;" points="9.432,-7.533 10.082,-7.533 10.082,-8.242 9.432,-8.242 		"/>
		<polygon style="fill:#969696;" points="4.856,-3.021 5.505,-3.021 5.505,-3.729 4.856,-3.729 		"/>
		<polygon style="fill:#B0B0B0;" points="3.088,-6.465 3.413,-6.465 3.413,-7.174 2.763,-7.174 2.763,-6.658 3.088,-6.658 		"/>
		<polygon style="fill:#B0B0B0;" points="3.088,-6.465 3.088,-6.658 2.763,-6.658 2.763,-6.465 		"/>
		<polygon style="fill:#B0B0B0;" points="11.604,-11.658 12.254,-11.658 12.254,-12.367 11.604,-12.367 		"/>
		<polygon style="fill:#D4D4D4;" points="10.817,-0.221 11.466,-0.221 11.466,-0.93 10.817,-0.93 		"/>
		<polygon style="fill:#858585;" points="6.17,-1.616 6.495,-1.616 6.495,-1.285 6.82,-1.285 6.82,-1.994 6.17,-1.994 		"/>
		<polygon style="fill:#858585;" points="6.17,-1.616 6.17,-1.285 6.495,-1.285 6.495,-1.616 		"/>
		<polygon style="fill:#CCCCCC;" points="0.924,-3.021 1.573,-3.021 1.573,-3.729 0.924,-3.729 		"/>
	</g>
</pattern>
<g>
	
		<pattern  id="SVGID_1_" xlink:href="#New_Pattern_Swatch_8" patternTransform="matrix(0.7862 -0.618 -0.618 -0.7862 -4328.0894 -12990.2988)">
	</pattern>
	<path style="fill:url(#SVGID_1_);stroke:#424143;stroke-width:0.5;" d="M32.316,6.734C29.35,2.93,19.121,6.501,11.746,9.479
		c-4.647,1.88-8.431-2.095-10.353,1.05c-1.495,2.446-1.491,11.092-0.178,13.088c2.467,3.75,9.668,7.527,17.935,4.19
		c5.153-2.08,10.632-5.36,12.013-8.11C32.543,16.944,32.674,7.192,32.316,6.734z"/>
	
		<pattern  id="SVGID_2_" xlink:href="#New_Pattern_Swatch_8" patternTransform="matrix(0.9929 0.1189 -0.1189 0.9929 -474.5594 821.0118)">
	</pattern>
	<path style="fill:url(#SVGID_2_);stroke:#767677;stroke-width:0.5;" d="M32.569,7.733c0.887,5.385-5.521,10.92-14.314,12.369
		C9.46,21.548,1.613,18.358,0.73,12.972C-0.158,7.585,6.25,2.047,15.044,0.598C23.838-0.849,31.686,2.345,32.569,7.733z"/>
</g>
</svg>
