<?xml version="1.0" encoding="iso-8859-1"?>
<!-- Generator: Adobe Illustrator 19.0.0, SVG Export Plug-In . SVG Version: 6.00 Build 0)  -->
<svg version="1.1" id="Layer_1" xmlns="http://www.w3.org/2000/svg" xmlns:xlink="http://www.w3.org/1999/xlink" x="0px" y="0px"
	 viewBox="0 0 116.449 29.402" style="enable-background:new 0 0 116.449 29.402;" width="116.449" height="29.402" xml:space="preserve">
<rect id="XMLID_17_" style="fill:#FFFFFF;" width="116.449" height="29.402"/>
<g id="XMLID_2_">
	<g id="XMLID_16_">
		<path id="XMLID_46_" d="M69.356,3.688h1.456l-9.448,21.447h-1.445L69.356,3.688z"/>
	</g>
	<g id="XMLID_1_">
		<path id="XMLID_18_" d="M5.972,7.484V6.879l2.412-0.282h0.032L8.723,6.83v5.067c0.349-0.342,0.762-0.627,1.238-0.854
			s1.007-0.341,1.593-0.341c0.645,0,1.242,0.154,1.791,0.462c0.549,0.308,0.989,0.784,1.323,1.426c0.333,0.642,0.5,1.447,0.5,2.413
			c0,0.899-0.192,1.72-0.577,2.463c-0.385,0.743-0.934,1.331-1.65,1.765c-0.715,0.434-1.544,0.651-2.485,0.651
			c-0.468,0-0.924-0.036-1.367-0.109c-0.444-0.073-0.819-0.159-1.125-0.258c-0.307-0.099-0.498-0.19-0.573-0.27V7.629L5.972,7.484z
			 M8.723,18.492c0.086,0.171,0.307,0.306,0.661,0.404c0.355,0.098,0.753,0.148,1.194,0.148c0.618,0,1.163-0.143,1.634-0.431
			c0.47-0.287,0.839-0.723,1.105-1.307c0.266-0.584,0.399-1.306,0.399-2.165c0-0.772-0.121-1.415-0.363-1.928
			c-0.242-0.513-0.567-0.89-0.976-1.132c-0.409-0.241-0.866-0.362-1.371-0.362c-0.463,0-0.899,0.109-1.311,0.328
			c-0.411,0.219-0.736,0.459-0.972,0.72V18.492z"/>
		<path id="XMLID_21_" d="M17.25,12.907c0.366-0.694,0.871-1.235,1.517-1.623c0.645-0.388,1.369-0.582,2.17-0.582
			c0.979,0,1.741,0.254,2.287,0.763c0.546,0.509,0.838,1.247,0.875,2.216v0.242c0,0.494-0.03,0.854-0.089,1.079h-5.881
			c0,0.091,0.003,0.159,0.008,0.202c0.021,0.823,0.167,1.514,0.436,2.073c0.269,0.559,0.624,0.976,1.065,1.251
			c0.441,0.274,0.933,0.411,1.476,0.411c0.457,0,0.928-0.083,1.412-0.25c0.484-0.167,0.86-0.363,1.129-0.589l0.266,0.605
			c-0.323,0.333-0.788,0.613-1.396,0.839c-0.608,0.226-1.221,0.339-1.839,0.339c-0.85,0-1.574-0.194-2.174-0.582
			c-0.6-0.388-1.051-0.927-1.355-1.619c-0.304-0.691-0.456-1.491-0.456-2.401C16.701,14.392,16.884,13.601,17.25,12.907z
			 M22.622,14.228c0.027-0.222,0.04-0.433,0.04-0.633c-0.005-0.621-0.176-1.116-0.512-1.485c-0.336-0.369-0.854-0.553-1.553-0.553
			c-1.506,0-2.323,0.89-2.452,2.67H22.622z"/>
		<path id="XMLID_24_" d="M27.027,19.032v-7.345h-1.678v-0.653l1.678-0.323V9.913c0-0.66,0.169-1.271,0.508-1.832
			c0.339-0.561,0.782-1.005,1.331-1.333c0.549-0.327,1.119-0.491,1.71-0.491c0.226,0,0.405,0.011,0.536,0.032
			c0.132,0.022,0.259,0.054,0.383,0.097v1.402c-0.097-0.079-0.278-0.155-0.545-0.227c-0.266-0.073-0.574-0.109-0.924-0.109
			c-0.387,0-0.702,0.064-0.944,0.193c-0.242,0.129-0.422,0.341-0.54,0.636c-0.118,0.295-0.177,0.692-0.177,1.191v1.239h2.396v0.976
			h-2.396V19.1h1.88v0.774h-4.671v-0.71L27.027,19.032z"/>
		<path id="XMLID_26_" d="M38.688,11.319c0.61,0.411,1.055,0.962,1.335,1.653c0.28,0.691,0.419,1.474,0.419,2.347
			c0,0.92-0.202,1.725-0.605,2.416c-0.403,0.691-0.932,1.222-1.585,1.592c-0.653,0.37-1.338,0.555-2.053,0.555
			c-0.947,0-1.725-0.205-2.335-0.617c-0.61-0.411-1.054-0.962-1.331-1.654c-0.277-0.691-0.415-1.474-0.415-2.347
			c0-0.915,0.202-1.719,0.605-2.413c0.403-0.694,0.93-1.225,1.581-1.596c0.651-0.37,1.334-0.555,2.049-0.555
			C37.299,10.702,38.077,10.908,38.688,11.319z M38.292,12.638c-0.428-0.714-1.096-1.072-2.005-1.072
			c-0.85,0-1.507,0.307-1.972,0.919c-0.465,0.613-0.698,1.512-0.698,2.697c0,0.727,0.091,1.38,0.274,1.957
			c0.183,0.577,0.472,1.035,0.867,1.373c0.395,0.338,0.899,0.507,1.513,0.507c0.85,0,1.506-0.308,1.968-0.923
			c0.462-0.616,0.694-1.513,0.694-2.693C38.934,14.274,38.72,13.352,38.292,12.638z"/>
		<path id="XMLID_29_" d="M43.33,19.079V12.05l-1.275-0.29v-0.742l2.089-0.258h0.04l0.315,0.258v0.608l-0.008,0.98H44.5
			c0.016-0.022,0.159-0.195,0.428-0.52c0.269-0.324,0.671-0.635,1.206-0.934c0.535-0.299,1.077-0.448,1.625-0.448
			c0.183,0,0.347,0.024,0.492,0.073v1.537c-0.043-0.051-0.14-0.102-0.29-0.154c-0.151-0.051-0.307-0.077-0.468-0.077
			c-0.629,0-1.17,0.1-1.621,0.3c-0.452,0.2-0.852,0.441-1.202,0.723v6.028h2.194v0.742h-4.856v-0.686L43.33,19.079z"/>
		<path id="XMLID_31_" d="M49.953,12.907c0.366-0.694,0.871-1.235,1.517-1.623s1.368-0.582,2.17-0.582
			c0.979,0,1.741,0.254,2.287,0.763c0.546,0.509,0.838,1.247,0.875,2.216v0.242c0,0.494-0.03,0.854-0.089,1.079h-5.881
			c0,0.091,0.003,0.159,0.008,0.202c0.021,0.823,0.167,1.514,0.436,2.073c0.269,0.559,0.624,0.976,1.065,1.251
			c0.441,0.274,0.933,0.411,1.476,0.411c0.457,0,0.928-0.083,1.412-0.25c0.484-0.167,0.86-0.363,1.129-0.589l0.266,0.605
			c-0.323,0.333-0.788,0.613-1.396,0.839c-0.608,0.226-1.221,0.339-1.839,0.339c-0.85,0-1.574-0.194-2.174-0.582
			c-0.6-0.388-1.051-0.927-1.355-1.619c-0.304-0.691-0.456-1.491-0.456-2.401C49.404,14.392,49.587,13.601,49.953,12.907z
			 M55.326,14.228c0.027-0.222,0.04-0.433,0.04-0.633c-0.005-0.621-0.176-1.116-0.512-1.485c-0.336-0.369-0.854-0.553-1.553-0.553
			c-1.506,0-2.323,0.89-2.452,2.67H55.326z"/>
		<path id="XMLID_34_" d="M78.203,13.786c0-0.501-0.058-0.894-0.173-1.181c-0.116-0.286-0.316-0.496-0.601-0.63
			c-0.285-0.134-0.689-0.2-1.21-0.2c-0.925,0-1.893,0.266-2.904,0.799h-0.008l-0.363-0.635c0.124-0.119,0.382-0.278,0.774-0.477
			c0.392-0.199,0.84-0.376,1.343-0.529c0.503-0.154,0.985-0.23,1.448-0.23c0.753,0,1.347,0.101,1.783,0.303
			c0.436,0.202,0.749,0.525,0.94,0.97c0.191,0.445,0.286,1.045,0.286,1.8v5.237h1.033v0.613c-0.645,0.172-1.162,0.258-1.549,0.258
			c-0.183,0-0.32-0.015-0.411-0.044c-0.092-0.029-0.161-0.094-0.21-0.193c-0.048-0.099-0.073-0.253-0.073-0.462v-0.602
			c-0.242,0.209-0.488,0.401-0.738,0.576c-0.25,0.175-0.566,0.339-0.948,0.494c-0.382,0.154-0.782,0.231-1.202,0.231
			c-0.511,0-0.975-0.094-1.392-0.281c-0.417-0.187-0.749-0.475-0.996-0.863c-0.247-0.388-0.371-0.869-0.371-1.442
			c0-0.723,0.259-1.311,0.778-1.763c0.519-0.453,1.194-0.78,2.025-0.984c0.831-0.203,1.744-0.305,2.739-0.305V13.786z M78.203,15.01
			c-0.893,0-1.644,0.092-2.255,0.276c-0.61,0.184-1.066,0.441-1.367,0.77c-0.301,0.329-0.452,0.711-0.452,1.144
			c0,0.631,0.161,1.091,0.484,1.379c0.323,0.288,0.755,0.432,1.299,0.432c0.317,0,0.69-0.104,1.117-0.313
			c0.428-0.209,0.819-0.459,1.174-0.751V15.01z"/>
		<path id="XMLID_37_" d="M83.205,19.032v-7.345h-1.678v-0.653l1.678-0.323V9.913c0-0.66,0.169-1.271,0.508-1.832
			c0.339-0.561,0.782-1.005,1.331-1.333c0.549-0.327,1.118-0.491,1.71-0.491c0.226,0,0.405,0.011,0.536,0.032
			c0.132,0.022,0.259,0.054,0.383,0.097v1.402c-0.097-0.079-0.278-0.155-0.545-0.227c-0.266-0.073-0.574-0.109-0.924-0.109
			c-0.387,0-0.702,0.064-0.944,0.193c-0.242,0.129-0.422,0.341-0.54,0.636c-0.118,0.295-0.177,0.692-0.177,1.191v1.239h2.396v0.976
			h-2.396V19.1h1.88v0.774h-4.671v-0.71L83.205,19.032z"/>
		<path id="XMLID_39_" d="M88.126,11.687v-0.653c0.167-0.04,0.354-0.087,0.561-0.142c0.207-0.054,0.34-0.099,0.399-0.133
			c0.086-0.057,0.157-0.129,0.214-0.215s0.106-0.198,0.149-0.335c0.065-0.184,0.156-0.522,0.274-1.015
			c0.118-0.493,0.194-0.831,0.226-1.015h0.766v2.533h2.928v0.976h-2.928v5.211c0,0.63,0.023,1.072,0.069,1.327
			c0.046,0.254,0.134,0.418,0.266,0.492c0.132,0.073,0.362,0.11,0.69,0.11h0.008c0.312,0,0.664-0.043,1.057-0.129
			c0.392-0.086,0.694-0.176,0.903-0.27h0.008l0.21,0.608c-0.161,0.124-0.406,0.252-0.734,0.383
			c-0.328,0.132-0.679,0.242-1.053,0.331c-0.374,0.089-0.706,0.133-0.996,0.133h-0.016c-0.576,0-1.011-0.134-1.307-0.403
			c-0.296-0.269-0.444-0.737-0.444-1.405v-6.388H88.126z"/>
		<path id="XMLID_41_" d="M95.571,12.907c0.366-0.694,0.871-1.235,1.517-1.623c0.645-0.388,1.368-0.582,2.17-0.582
			c0.979,0,1.741,0.254,2.287,0.763c0.546,0.509,0.838,1.247,0.875,2.216v0.242c0,0.494-0.03,0.854-0.089,1.079h-5.881
			c0,0.091,0.003,0.159,0.008,0.202c0.021,0.823,0.167,1.514,0.436,2.073c0.269,0.559,0.624,0.976,1.065,1.251
			c0.441,0.274,0.933,0.411,1.476,0.411c0.457,0,0.928-0.083,1.412-0.25c0.484-0.167,0.86-0.363,1.129-0.589l0.266,0.605
			c-0.323,0.333-0.788,0.613-1.396,0.839c-0.608,0.226-1.221,0.339-1.839,0.339c-0.85,0-1.574-0.194-2.174-0.582
			c-0.6-0.388-1.052-0.927-1.355-1.619c-0.304-0.691-0.456-1.491-0.456-2.401C95.023,14.392,95.206,13.601,95.571,12.907z
			 M100.944,14.228c0.027-0.222,0.04-0.433,0.04-0.633c-0.005-0.621-0.176-1.116-0.512-1.485c-0.336-0.369-0.854-0.553-1.553-0.553
			c-1.506,0-2.323,0.89-2.452,2.67H100.944z"/>
		<path id="XMLID_44_" d="M105.3,19.079V12.05l-1.275-0.29v-0.742l2.089-0.258h0.04l0.315,0.258v0.608l-0.008,0.98h0.008
			c0.016-0.022,0.158-0.195,0.428-0.52c0.269-0.324,0.671-0.635,1.206-0.934c0.535-0.299,1.077-0.448,1.625-0.448
			c0.183,0,0.347,0.024,0.492,0.073v1.537c-0.043-0.051-0.14-0.102-0.29-0.154c-0.151-0.051-0.307-0.077-0.468-0.077
			c-0.629,0-1.17,0.1-1.621,0.3c-0.452,0.2-0.852,0.441-1.202,0.723v6.028h2.194v0.742h-4.856v-0.686L105.3,19.079z"/>
	</g>
</g>
</svg>
